<svg xmlns="http://www.w3.org/2000/svg" style="isolation:isolate" viewBox="0 0 2500 2500" width="2500" height="2500"><defs><clipPath id="a"><path d="M0 0h2500v2500h-2500z"/></clipPath></defs><g clip-path="url(#a)"><path d="M796.073 2076.46l-6.814 3.276 6.752-3.407-53.116-106.905c-7.154-14.03-14.979-22.278-21.101-26.973 5.664-5.208 13.144-13.692 20.339-26.801l100.692-183.747h-102.437l-86.621 161.109c-2.742 4.57-5.325 6.378-9.39 7.86-4.128 1.385-10.083 1.745-17.583 1.71h-37.133v-122.922c0-14.806-3.151-27.175-11.635-35.804-8.566-8.621-20.997-11.959-36.135-11.959h-46.053v434.584h93.823v-183.123h32.41c8.185 0 15.007.256 19.674 1.683 4.744 1.523 7.431 3.358 10.208 8.428l68.449 137.458c7.056 14.314 15.048 23.913 26.038 29.328 10.977 5.333 23.325 6.191 39.266 6.226h56.815l-5.804-11.15c-.048-.083-34.903-66.849-40.644-78.878v.007zm406.704-344.557h-37.168c-14.875-.034-27.285 3.304-35.893 11.891-8.553 8.587-11.96 20.963-11.897 35.845v130.028h-139.218v-130.028c0-14.813-3.102-27.161-11.613-35.803-8.629-8.629-21.025-11.967-36.192-11.933h-44.799v434.55h92.604v-176.004h139.218v175.997h92.569v-434.556h-7.618l.007.013zm225.88 118.048c2.984 11.634 6.53 24.743 9.903 34.93l32.617 95.111h-85.062l32.604-95.083c3.414-10.215 6.987-23.324 9.938-34.958zm46.128-118.048h-91.62l-1.815 5-156.08 429.55h57.5c15.326 0 27.008-1.883 36.461-8.545 9.419-6.718 14.869-16.967 19.737-30.707l24.197-68.234h130.99l24.225 68.2c4.903 13.809 10.54 24.12 20.117 30.775 9.536 6.628 21.33 8.511 36.635 8.511h56.925l-157.272-434.556v.006zm521.794 0h-37.202c-15.187 0-27.604 3.338-36.115 11.953-8.553 8.657-11.704 21.005-11.704 35.831v191.96c0 6.427.305 13.518.727 20.506-5.727-11.129-12.285-22.971-18.712-32.403l-138.061-227.847h-89.196v434.585h44.972c15.028 0 27.396-3.144 35.942-11.69 8.587-8.615 11.69-20.983 11.69-36.115v-191.343c0-6.316-.257-13.324-.665-20.208 5.706 11.163 12.299 22.936 18.767 32.216l138.587 227.14h88.553v-434.585h-7.583z" fill="#23282e"/><path d="M571.24 2431.62l-20.894-56.413c-2.707-7.41-6.066-20.443-6.066-20.443h-.45s-3.373 13.026-6.067 20.443l-20.692 56.413h54.169zm-35.499-93.948h16.849l59.958 158.006h-4.667c-11.233 0-14.287-2.251-18.345-13.034l-14.03-37.313h-62.674l-14.266 37.313c-4.044 10.783-6.862 13.034-18.123 13.034h-4.57l59.875-158.006h-.007zm303.407 36.427c-6.094-12.971-23.31-27.819-48.573-27.819-35.056 0-62.015 27.424-62.015 65.637 0 37.757 26.745 68.11 62.707 68.11 17.119 0 30.838-5.693 39.384-11.988 10.388-7.645 21.295 1.191 21.295 1.191s-21.801 25.61-60.907 25.61c-46.302 0-78.899-36.856-78.899-82.923 0-45.623 33.483-80.45 77.992-80.45 22.472 0 50.187 9.966 60.685 33.795 4.917 10.81 5.54 15.949 5.54 15.949s-13.13 1.572-17.209-7.112zm207.119 57.521l-20.907-56.413c-2.694-7.41-6.066-20.443-6.066-20.443h-.451s-3.372 13.026-6.08 20.443l-20.679 56.413h54.183zm-35.526-93.948h16.863l59.958 158.006h-4.667c-11.24 0-14.287-2.251-18.338-13.034l-14.024-37.313h-62.701l-14.252 37.313c-4.051 10.783-6.876 13.034-18.123 13.034h-4.577l59.868-158.006h-.007zm227.313 144.058h-26.524c-3.144 0-4.937-1.565-4.937-4.944v-125.187h31.461c38.657 0 64.501 22.929 64.501 64.958 0 42.258-25.623 65.166-64.501 65.166v.007zm1.565-144.058h-48.781v144.294c0 9.654 4.058 13.705 13.712 13.705h35.069c47.646 0 79.335-28.781 79.335-79.114 0-49.882-31.689-78.878-79.335-78.878v-.007zm279.834 144.058h-55.506c-3.151 0-4.944-1.565-4.944-4.944v-53.705h59.328v-13.934h-59.328v-57.548h73.719v-.201c0-9.681-4.052-13.726-13.719-13.726h-75.741v144.294c0 9.654 4.051 13.705 13.712 13.705h68.331c9.653 0 13.705-4.051 13.705-13.712v-.229h-19.557zm139.404-144.058h15.956l41.807 91.925c2.817 6.134 5.443 12.354 7.874 18.65h.444s4.044-10.554 7.631-18.65l41.815-91.925h15.955l13.754 158.006h-4.536c-9.668 0-13.04-4.058-13.712-13.712l-7.41-95.963c-.693-8.552-.693-22.043-.693-22.043h-.443s-4.273 13.941-8.102 22.043l-37.507 80.229h-14.155l-37.32-80.229c-3.601-7.874-8.311-22.479-8.311-22.479h-.45s0 13.92-.685 22.479l-7.417 95.963c-.672 9.654-4.045 13.712-13.712 13.712h-3.67l12.887-158.006zm294.529 89.231l-55.02-89.231h4.667c10.783 0 14.827 1.565 21.572 12.583l26.752 44.723c3.405 5.819 6.622 11.746 9.647 17.77h.464s4.709-9.459 9.654-17.77l26.745-44.723c6.745-11.011 10.783-12.583 21.586-12.583h4.674l-55.02 89.231v68.768h-15.721v-68.768z"/><path d="M489.449 2250.678h1521.102v-6.898h-1521.102v6.898z" fill="#231f1f"/><g><path d="M1423.512 1600.678c-85.492 0-168.608-.16-251.731.159-13.664.042-14.509-5.409-11.358-16.828 16.787-60.845 13.518-123.214 13.089-185.333-.09-13.213-1.904-25.706-10.637-35.983-56.406-66.191-75.658-146.177-87.95-229.55-15.146-102.701-43.795-201.586-91.953-294.183-2.93-5.644-5.36-11.599-7.653-17.562-5.187-13.449-8.829-28.393 5.935-36.808 15.132-8.608 31.372-4.21 41.496 9.89 12.749 17.763 23.241 37.146 34.522 55.948 18.352 30.561 35.61 61.856 58.179 89.613 6.537 8.054 14.952 20.387 26.309 14.217 9.723-5.298 3.407-18.186 1.925-27.853-12.701-83.116-21.932-166.641-28.303-250.464-1.475-19.321 3.171-37.985 26.219-41.558 22.597-3.511 26.246 14.806 30.47 30.997 19.557 75.111 38.906 150.249 58.851 225.249 2.202 8.262 2.528 22.182 12.638 21.988 12.147-.236 11.385-14.522 13.186-23.809 9.605-49.488 9.681-99.952 14.855-149.917 4.813-46.33 8.344-92.812 11.357-139.301 1.565-23.988 13.054-38.137 36.544-39.923 19.924-1.51 30.637 14.771 30.589 43.275-.139 91.461-.589 182.916-.367 274.37.034 14.01-3.352 35.298 11.953 38.165 13.255 2.493 16.586-18.816 21.468-31.06 28.497-71.385 66.24-138.441 97.23-208.663 8.061-18.283 23.739-23.206 40.907-17.029 22.431 8.082 18.303 27.451 13.096 44.19-27.136 87.185-54.745 174.222-82.826 261.108-9.307 28.76-10.443 57.271-2.992 86.322 1.143 4.426 2.043 8.962 3.795 13.144 5.541 13.228 7.916 30.942 24.827 33.221 15.27 2.056 22.77-13.2 31.558-23.283 25.035-28.67 45.402-62.95 88.297-68.906 18.289-2.548 36.357-3.961 54.3 1.711 23.387 7.424 26.469 17.41 9.453 34.349-9.002 8.982-18.919 17.611-29.806 24.03-48.698 28.601-80.104 70.734-101.025 122.376-10.962 27.063-24.577 53.054-37.742 79.155-11.191 22.16-23.781 45.775-43.657 59.12-37.416 25.146-40.761 60.852-42.513 99.647-2.66 58.608-.88 116.69 17.465 175.762v.007z" fill="#9a9188"/><path d="M783.45 673.046c26.696 31.087 53.386 62.168 80.228 93.442-58.033 22.618-133.753 1.267-174.425-50.139-44.398-56.149-60.042-122.042-61.828-192.146-.229-8.408-.104-16.482 11.683-17.854 94.168-10.976 252.195 70.935 253.67 195.741.041 4.578.485 9.211-.159 13.705-1.607 11.42.554 27.653-9.696 31.946-10.249 4.315-16.558-11.343-24.473-18.247-23.373-20.409-46.212-41.434-69.252-62.237-7.009-3.117-7.355.353-5.748 5.789m735.207-190.097c-38.248 24.446-64.425 60.942-95.367 93.02-30.955-45.097-16.786-128.685 30.354-175.056 41.752-41.066 93.552-63.005 150.221-74.044 47.188-9.19 48.193-8.103 48.22 41.163.049 65.831-22.458 123.761-64.82 173.352-38.268 44.792-87.133 63.802-150.29 53.58 28.462-39.044 55.083-75.526 81.682-112.015zm337.916 592.784c-32.929-26.974-73.103-39.674-110.734-57.915 31.184-40.734 109.834-52.473 164.931-23.962 48.781 25.257 83.448 65.035 109.806 112.348 21.953 39.398 21.26 40.603-22.646 54.986-58.677 19.238-116.883 16.06-173.462-7.257-51.088-21.06-82.272-59.086-91.572-118.373l123.684 40.173m-626.863-722.188c-13.31 41.364-18.629 83.726-23.407 126.191-.776 6.911 2.784 16.551-4.924 20.014-8.954 4.03-14.82-5.166-20.395-10.305-46.724-43.116-62.043-95.249-42.888-156.44 17.902-57.251 52.376-103.754 95-144.945 8.872-8.566 15.485-10.602 24.086.741 52.673 69.501 78.657 145.914 59.211 233.255-8.449 37.867-32.576 64.418-68.214 80.457-14.972 6.752-22.209 8.116-20.928-13.691 2.66-44.973 10.25-89.945 2.459-135.277m-175.319 304.099c-13.691-40.872-26.876-80.18-40.055-119.473-4.342 35.817 7.154 68.303 13.92 101.586 1.405 6.939 6.689 15.394.138 20.45-6.253 4.847-13.989-1.503-20.339-4.349-57.133-25.637-91.655-68.56-97.092-131.925-5.062-59.218 11.122-113.989 38.165-166.032 4.405-8.47 8.158-15.582 20.603-9.751 85.838 40.208 155.346 163.885 125.014 250.519-7.847 22.445-17.923 43.643-40.347 58.975m-226.655 306.074c33.795 31.946 67.59 63.878 102.438 96.842-33.428 20.672-77.119 21.787-113.456-.069-80.228-48.22-120.679-121.815-128.456-214.266-1.114-13.297 4.149-17.424 17.674-16.018 69.418 7.23 134.536 26.544 190.491 69.55 43.504 33.428 60.942 78.435 52.299 133.047-.837 5.298.167 12.133-5.941 14.231-6.212 2.147-9.232-4.397-12.985-7.902-30.706-28.76-62.514-56.184-96.551-80.921-1.413-1.696-2.992-2.126-4.495-.976-2.354 1.787-3.061 3.947-1.018 6.475m38.165-569.55c-45.222-19.252-81.911-50.893-128.532-61.066 35.132 30.969 74.571 55.325 114.01 79.709-23.31 32.479-95.824 39.82-133.615 17.292-66.773-39.799-100.201-103.996-124.779-174.259-3.642-10.429 2.133-14.841 11.524-17.327 81.731-21.655 158.269-12.119 224.342 43.033 33.608 28.054 44.945 66.919 37.05 112.618zm691.253 494.294c45.423-15.762 90.028-25.817 130.887-46.496-45.499 2.818-88.484 18.241-135.81 26.987 9.037-43.386 32.832-72.001 70.297-87.105 68.11-27.444 135.755-23.206 201.656 9.211 9.965 4.91 17.839 9.57 7.569 22.022-43.774 53.075-92.687 99.307-162.431 114.958-43.781 9.834-80.506-4.667-112.168-39.577zm-99.875-721.995c-17.687 35.305-24.481 73.795-34.813 111.261-34.91-15.208-58.109-61.773-49.404-102.216 13.712-63.574 55.568-107.48 105.048-145.707 9.986-7.714 14.453-1.918 19.252 5.596 35.291 55.048 48.193 113.968 29.37 177.763-9.661 32.728-31.752 54.917-63.248 67.659-16.967 6.863-23.733 2.112-19.688-16.918 6.793-32.029 14.148-64.051 13.483-97.438m-432.583 51.101c13.033 27.937 26.087 55.873 39.224 84.017-42.915 8.38-86.772-15.755-105.886-58.982-21.641-48.892-19.024-99.654-9.557-150.748 2.05-10.997 7.202-13.352 17.292-9.917 62.577 21.24 112.293 57.556 136.856 121.018 12.743 32.916 7.258 64.405-18.552 94.737l-53.754-85.866c-6.78-2.894-7.091.554-5.623 5.741m880.547 430.672c37.521-15.443 74.758-24.681 113.068-49.709-46.572 1.482-82.431 18.012-120.312 25.443-.055-40.062 17.763-68.573 55.61-82.472 58.158-21.371 114.889-14.585 169.577 13.795 10.506 5.436 12.369 11.523 6.441 21.475-24.245 40.686-53.352 76.738-96.524 98.594-45.796 23.179-90.554 13.809-127.86-27.126m-956.371 606.939c20.582-7.271 41.053-14.91 61.828-21.593 7.202-2.326 15.056-11.218 22.299-3.705 6.482 6.725.049 15.707-1.849 23.304-8.781 35.214-32.223 56.807-66.406 65.789-43.601 11.482-86.689 5.402-129.355-7.084-12.66-3.712-16.247-9.626-10.928-21.697 24.494-55.582 62.354-95.935 124.044-108.989 31.226-6.607 56.35 5.263 80.907 26.884l-85.859 41.613c-1.572 1.385-2.105 2.992-1.08 4.557 1.711 2.618 4.01 2.389 6.399.921m-409.162-329.162c33.753 11.842 66.62 2.839 99.224 5.7-6.004 35.11-36.329 62.299-73.726 64.806-54.203 3.642-99.189-19.772-141.62-50.042-8.49-6.073-8.345-11.426-2.41-20.305 29.896-44.688 112.237-76.599 163.158-62.278 25.956 7.299 44.598 22.888 57.264 50.014l-101.89 12.105m1166.198-303.22c-18.795 14.28-37.604 28.546-56.551 42.936-13.553-36.773 1.731-81.426 37.7-107.07 38.318-27.355 82.307-37.452 128.671-40.007 15.415-.845 19.238 5.443 16.53 19.231-11.163 56.669-36.426 105.138-84.543 138.781-27.77 19.405-58.158 24.585-91.932 5.215 19.529-18.532 37.812-35.9 56.074-53.248 1.184-2.355 3.545-6.378 2.95-6.988-2.936-3.033-5.852.665-8.906 1.15m-1132.223 35.956c-32.729 10.54-64.785 16.876-99.398 34.335 33.172 4.931 58.574-5.582 84.717-8.982 6.579-.852 14.882-7.957 19.986-.312 4.224 6.33-1.136 14.065-3.795 20.783-11.122 28.047-33.283 43.836-61.455 49.376-46.364 9.121-90.775 2.113-132.403-21.468-14.896-8.448-19.363-16.599-7.694-31.828 21.967-28.691 46.469-54.363 78.948-70.845 45.602-23.116 85.955-13.691 121.094 28.948m1241.814-299.8c-22.451 11.808-44.91 23.601-67.382 35.388-11.461-33.656 2.632-70.692 35.679-89.446 41.544-23.58 86.745-25.457 132.901-19.778 12.514 1.537 17.674 7.41 14.301 20.18-13.158 49.889-39.266 90.353-86.087 114.467-30.887 15.893-61.392 13.684-91.898-8.124l71.288-51.551c-2.077-7.001-5.824-1.039-8.795-1.136m-144.556 876.365c-26.863-12.362-53.719-24.723-80.575-37.099 22.95-34.515 67.167-47.811 107.978-30.609 51.302 21.607 85.159 62.036 112.714 108.698 7.466 12.659 5.72 21.593-8.476 27.548-55.443 23.304-111.358 27.951-166.905 1.829-36.634-17.223-56.274-46.981-57.804-90.651l98.268 29.203c4.993-6.897-3.171-6.115-5.2-8.919m-1113.221-719.703c-25.464-6.904-45.311-24.238-77.292-24.12l73.664 39.127c-25.776 23.144-52.757 26.822-81.115 16.87-46.794-16.44-77.099-50.325-96.392-95.291-5.52-12.881-1.752-18.261 11.08-20.845 37.202-7.479 74.39-10 111.24.984 39.058 11.641 60.152 41.378 58.815 83.275zm216.801 613.027c-18.629 2.057-33.677 3.532-48.684 5.457-14.045 1.786-28.02 4.044-41.406 10.027 24.529 0 49.051.381 73.573-.131 15.651-.305 17.466 5.519 9.744 17.673-14.224 22.368-35.132 34.82-60.783 37.41-45.588 4.626-86.378-8.421-122.777-36.378-12.728-9.765-13.13-17.022-.484-27.265 33.088-26.724 67.597-50.069 111.946-52.216 33.968-1.634 59.058 12.826 78.871 45.43m940.36-968.463c-33.123 12.272-56.094 30.18-82.756 44.834-8.601-35.097 3.372-59.779 29.383-77.687 34.73-23.948 73.602-30.291 115.035-23.31 14.439 2.444 20.734 7.458 15.492 23.601-10.263 31.662-23.352 61.288-47.521 85.069-23.303 22.95-50.79 26.939-80.935 18.283-5.817-1.683-13.712-4.917-15.568-9.502-2.908-7.202 6.482-9.363 11.053-13.047 17.375-14.024 37.098-25.332 55.817-48.241zm204.564 669.529c28.58-4.314 54.93 9.986 85.831 3.047-27.576-12.811-54.959-13.061-80.561-19.924 15.907-37.977 57.181-54.155 101.946-38.802 36.579 12.549 65.54 36.358 91.163 64.841 8.864 9.848 10.118 16.344-2.077 24.654-42.888 29.204-89.149 41.697-139.959 27.472-30.111-8.449-50.346-28.012-56.343-61.288m-740.866-732.742c3.463 13.248 17.742 20.505 19.903 34.695-40.111 7.964-64.113-6.233-81.302-48.601-10.45-25.748-22.188-60.637-3.366-77.168 18.865-16.537 49.419 5.568 71.711 18.899 37.237 22.299 45.81 51.434 29.889 94.585-14.951-4.82-18.352-21.794-30.505-28.996-7.757-3.22-8.567.221-6.33 6.586zm-322.95 108.178c-37.029.035-56.828-13.254-66.669-43.753-9.245-28.726-6.184-57.549.921-86.247 2.285-9.175 6.44-13.815 17.271-11.952 35.215 6.073 81.946 56.184 84.003 92.084.942 16.662-2.479 29.176-17.334 41.759-11.579-20.125-23.462-36.634-34.646-56.094-2.106 23.234 11.738 41.447 16.461 64.203" fill="#9eb63a"/></g></g></svg>